<svg fill="#FFF" width="22" height="22" viewBox="0 0 22 22" xmlns="http://www.w3.org/2000/svg">
	<g clip-path="url(#clip0_602_342)">
		<path fill-rule="evenodd" clip-rule="evenodd" d="M18.3869 8.44442C18.3869 5.34969 16.9449 3.24618 14.1 2.19344C13.6 0.875092 12.3719 9.15527e-05 11.0002 9.15527e-05C9.62558 9.15527e-05 8.39748 0.877042 7.90282 2.19345C5.05841 3.24521 3.61593 5.34872 3.61593 8.44345C3.61544 9.62216 3.02214 10.9005 1.80283 12.3517C0.942431 13.3751 0.758821 14.7638 1.3238 15.9767C1.90489 17.2247 3.12811 18.0001 4.5154 18.0001H6.99993C6.99993 20.2061 8.79447 22.0001 11.0002 22.0001C13.2059 22.0001 15.0004 20.2061 15.0004 18.0001H17.485C18.8718 18.0001 20.0945 17.2247 20.6761 15.9776C21.2411 14.7647 21.0579 13.3751 20.198 12.3517C18.9963 10.9229 18.3869 9.60751 18.3869 8.44442ZM11.0002 20.0001C9.89708 20.0001 9.00006 19.1026 9.00006 18.0001H13.0003C13.0003 19.1026 12.1033 20.0001 11.0002 20.0001ZM18.863 15.1329C18.61 15.6759 18.0949 16.0001 17.485 16.0001H4.5154C3.90501 16.0001 3.38984 15.6759 3.1369 15.1329C2.90056 14.6251 2.97429 14.0665 3.33418 13.6388C4.86845 11.8126 5.61508 10.1134 5.61606 8.44441C5.61606 5.52253 7.2353 4.5616 8.64603 4.05086C9.16608 3.86238 9.58945 3.44637 9.75254 2.96102C9.91026 2.4825 10.3571 2.00008 11.0002 2.00008C11.6428 2.00008 12.0916 2.48348 12.2532 2.96883C12.4168 3.4493 12.8397 3.86336 13.3563 4.05086C14.7675 4.5616 16.3868 5.52352 16.3868 8.44441C16.3868 10.1153 17.1324 11.8136 18.6667 13.6388C19.0261 14.0665 19.0998 14.6251 18.863 15.1329Z" />
	</g>
</svg>
