<svg width="22" height="22" viewBox="0 0 22 22" xmlns="http://www.w3.org/2000/svg">
	<g clip-path="url(#clip0_602_345)">
		<path fill-rule="evenodd" clip-rule="evenodd" d="M13.9414 16.2887L6.43402 19.0533L6.5484 19.3673C7.13922 20.9903 8.67682 21.9991 10.3116 21.9991C10.7647 21.9991 11.2252 21.922 11.6749 21.7579C12.6793 21.3927 13.481 20.6583 13.9322 19.6895C14.3838 18.7218 14.4312 17.6349 14.066 16.631L13.9414 16.2887Z" />
		<path fill-rule="evenodd" clip-rule="evenodd" d="M18.3155 8.6583C16.7183 7.72764 15.7086 6.70127 15.3145 5.60654C14.2686 2.70029 12.2183 1.21592 9.21637 1.19443C8.55768 0.425388 7.62543 0.00192765 6.67816 0.000947647C6.30951 0.000577647 5.9386 0.0642976 5.58063 0.196378C4.30084 0.667078 3.45514 1.91122 3.44049 3.31845C1.15582 5.2794 0.527402 7.74619 1.57184 10.6505C1.96539 11.7472 1.84332 13.1935 1.20954 14.9503C0.752512 16.2169 1.06061 17.5909 2.01325 18.5372C2.02393 18.546 19.9818 11.9326 19.9818 11.9326C20.1036 10.5714 19.4634 9.32822 18.3155 8.6583Z" />
	</g>
</svg>
