<svg width="22" height="22" viewBox="0 0 22 22" xmlns="http://www.w3.org/2000/svg">
	<path fill-rule="evenodd" clip-rule="evenodd"
				d="M7.00008 21.0001H15.0001C17.7569 21.0001 20.0001 18.7569 20.0001 16.0001V6.00009C20.0001 3.24325 17.7569 1.00009 15.0001 1.00009H7.00008C4.24324 1.00009 2.00008 3.24325 2.00008 6.00009V16.0001C2.00008 18.7569 4.24324 21.0001 7.00008 21.0001ZM4.00008 6.00009C4.00008 4.34579 5.34578 3.00009 7.00008 3.00009H11.0001V10.3738C11.0001 10.9301 11.6721 11.2092 12.0662 10.8166L13.067 9.81967C13.3115 9.57608 13.7072 9.57681 13.9508 9.82138L14.9323 10.8067C15.3256 11.2016 16.0001 10.9229 16.0001 10.3656V3.18435C17.1616 3.59847 18.0001 4.69814 18.0001 6.00008V16.0001C18.0001 17.6544 16.6544 19.0001 15.0001 19.0001H7.00008C5.34578 19.0001 4.00008 17.6544 4.00008 16.0001V6.00009Z"
				/>
</svg>
