<svg width="22" height="22" viewBox="0 0 22 22" xmlns="http://www.w3.org/2000/svg">
<path fill-rule="evenodd" clip-rule="evenodd" 
		d="M6.16016 21.0011C6.00977 21.0011 5.86036 20.9698 5.71778 20.9083C5.26856 20.715 5.00001 20.2687 5.00001 19.715L5.00685 3.99914C5.00783 2.34484 6.35451 1.00012 8.00685 1.00012H14C15.6543 1.00012 17 2.34582 17 4.00012V19.714C17 20.2667 16.7276 20.7062 16.2715 20.8908C15.8154 21.0734 15.3145 20.9474 14.9297 20.5499L12.0859 17.6242C11.8066 17.3361 11.4336 17.1779 11.0361 17.1779C10.6397 17.1779 10.2666 17.3351 9.98731 17.6212L7.08106 20.5949C6.79688 20.8644 6.47559 21.0011 6.16016 21.0011ZM8.00684 3.00011C7.45606 3.00011 7.00684 3.44835 7.00684 4.00011L7.00098 17.8165L8.55664 16.2238C9.21484 15.549 10.0957 15.1779 11.0352 15.1779C11.9795 15.1788 12.8604 15.5519 13.5195 16.2296L15 17.7531V4.00011C15 3.44835 14.5518 3.00011 14 3.00011H8.00684Z"
		/>
</svg>
