<svg width="24" height="22" viewBox="0 0 24 22" xmlns="http://www.w3.org/2000/svg">
<path fill-rule="evenodd" clip-rule="evenodd" d="M6.89912 21.001C6.74012 21.001 6.58217 20.9697 6.43143 20.9082C5.95652 20.7148 5.67261 20.2686 5.67261 19.7148L5.67984 3.99902C5.68087 2.34472 7.10458 1 8.85144 1H15.1874C16.9363 1 18.359 2.3457 18.359 4V19.7139C18.359 20.2666 18.071 20.7061 17.5888 20.8906C17.1067 21.0732 16.577 20.9473 16.1703 20.5498L13.1638 17.624C12.8686 17.3359 12.4742 17.1777 12.054 17.1777C11.6348 17.1777 11.2405 17.335 10.9452 17.6211L7.87269 20.5947C7.57226 20.8643 7.23259 21.001 6.89912 21.001Z"/>
</svg>
