<?xml version="1.0" encoding="utf-8"?>
<!-- Generator: Adobe Illustrator 28.0.0, SVG Export Plug-In . SVG Version: 6.00 Build 0)  -->
<svg fill="#FFF" version="1.1" id="Layer_1" xmlns="http://www.w3.org/2000/svg" xmlns:xlink="http://www.w3.org/1999/xlink" x="0px"
		 y="0px"
		 viewBox="0 0 22 22" style="enable-background:new 0 0 22 22;" xml:space="preserve">
	<g>
	<defs>
		<rect id="SVGID_1_" width="22" height="22"/>
	</defs>
		<clipPath id="SVGID_00000154422417093511676530000009433671199941159842_">
		<use xlink:href="#SVGID_1_" style="overflow:visible;"/>
	</clipPath>
		<g style="clip-path:url(#SVGID_00000154422417093511676530000009433671199941159842_);">
		<path d="M16,1c0-0.6-0.4-1-1-1c-0.6,0-1,0.4-1,1H8c0-0.6-0.4-1-1-1S6,0.4,6,1C3.2,1,1,3.2,1,6h20C21,3.2,18.8,1,16,1z
			"/>
			<path d="M1,16c0,2.8,2.2,5,5,5h10c2.8,0,5-2.2,5-5V8H1V16z M14,11c0-0.6,0.4-1,1-1h1c0.6,0,1,0.4,1,1v1
			c0,0.6-0.4,1-1,1h-1c-0.6,0-1-0.4-1-1V11z M14,15c0-0.6,0.4-1,1-1h1c0.6,0,1,0.4,1,1v1c0,0.6-0.4,1-1,1h-1c-0.6,0-1-0.4-1-1V15z
			 M9.5,11c0-0.6,0.4-1,1-1h1c0.6,0,1,0.4,1,1v1c0,0.6-0.4,1-1,1h-1c-0.6,0-1-0.4-1-1V11z M9.5,15c0-0.6,0.4-1,1-1h1
			c0.6,0,1,0.4,1,1v1c0,0.6-0.4,1-1,1h-1c-0.6,0-1-0.4-1-1V15z M5,11c0-0.6,0.4-1,1-1h1c0.6,0,1,0.4,1,1v1c0,0.6-0.4,1-1,1H6
			c-0.6,0-1-0.4-1-1V11z M5,15c0-0.6,0.4-1,1-1h1c0.6,0,1,0.4,1,1v1c0,0.6-0.4,1-1,1H6c-0.6,0-1-0.4-1-1V15z"/>
	</g>
</g>
</svg>
