<?xml version="1.0" encoding="utf-8"?>
<!-- Generator: Adobe Illustrator 27.9.0, SVG Export Plug-In . SVG Version: 6.00 Build 0)  -->
<svg fill="#FFF" version="1.1" id="Layer_1" xmlns="http://www.w3.org/2000/svg" xmlns:xlink="http://www.w3.org/1999/xlink" x="0px" y="0px"
	 viewBox="0 0 22 22" style="enable-background:new 0 0 22 22;" xml:space="preserve">
<g>
	<g>
		<defs>
			<rect id="SVGID_1_" x="0.2" y="0.6" width="21.4" height="21.4"/>
		</defs>
		<clipPath id="SVGID_00000033356767359687114330000011389132848195287680_">
			<use xlink:href="#SVGID_1_"  style="overflow:visible;"/>
		</clipPath>
		<g style="clip-path:url(#SVGID_00000033356767359687114330000011389132848195287680_);">
			<path d="M3.7,13.4H2.5c-1.3,0-2.3-1-2.3-2.2V2.7c0-1.2,1-2.2,2.3-2.2H15c1.3,0,2.3,1,2.3,2.2l0,1
				c0,0.4-0.4,0.8-0.8,0.8c-0.4,0-0.8-0.4-0.8-0.8l0-1c0-0.3-0.3-0.6-0.7-0.6H2.5c-0.4,0-0.7,0.3-0.7,0.6v8.5c0,0.3,0.3,0.6,0.7,0.6
				h1.2c0.4,0,0.8,0.4,0.8,0.8C4.5,13,4.1,13.4,3.7,13.4z M13.7,15.8c0-0.4-0.4-0.8-0.8-0.8H8.5c-0.4,0-0.8-0.4-0.8-0.8v-3.5h10.5
				c0.4,0,0.8-0.4,0.8-0.8V8.3c0-1.3-1.1-2.4-2.4-2.4h-8C7.2,5.9,6.1,7,6.1,8.3v5.9c0,1.3,1.1,2.4,2.4,2.4h4.4
				C13.3,16.6,13.7,16.3,13.7,15.8z M7.7,8.3c0-0.4,0.4-0.8,0.8-0.8h8c0.4,0,0.8,0.4,0.8,0.8v0.8H7.7V8.3z"/>
		</g>
	</g>
	<path d="M18.1,15.5c0.2,0.2,0.4,0.2,0.6,0l2.8-3c-0.3-0.3-0.8-0.5-1.2-0.5h-3.6c-0.5,0-0.9,0.2-1.2,0.5L18.1,15.5z"/>
	<path d="M22,13.8c0-0.2,0-0.5-0.1-0.7l-2,2.1l2,2.1c0.1-0.2,0.1-0.4,0.1-0.7V13.8z"/>
	<path d="M15,13.1c-0.1,0.2-0.1,0.4-0.1,0.7v2.9c0,0.2,0,0.5,0.1,0.7l2-2.1L15,13.1z"/>
	<path d="M19.4,15.8L19.2,16c-0.2,0.2-0.5,0.4-0.8,0.4s-0.6-0.1-0.8-0.4l-0.2-0.2L15.4,18c0.3,0.3,0.8,0.5,1.2,0.5h3.6
		c0.5,0,0.9-0.2,1.2-0.5L19.4,15.8z"/>
</g>
</svg>
