<?xml version="1.0" encoding="utf-8"?>
<!-- Generator: Adobe Illustrator 28.0.0, SVG Export Plug-In . SVG Version: 6.00 Build 0)  -->
<svg version="1.1" id="Layer_1" xmlns="http://www.w3.org/2000/svg" xmlns:xlink="http://www.w3.org/1999/xlink" x="0px" y="0px"
	 viewBox="0 0 22 22" style="enable-background:new 0 0 22 22;" xml:space="preserve">
	<g>
	<defs>
		<rect id="SVGID_1_" width="22" height="22"/>
	</defs>
	<clipPath id="SVGID_00000129891069250535663130000011152772358456111003_">
		<use xlink:href="#SVGID_1_"  style="overflow:visible;"/>
	</clipPath>
	<g style="clip-path:url(#SVGID_00000129891069250535663130000011152772358456111003_);">
		<path d="M15,9c0-0.6,0.4-1,1-1c0.6,0,1,0.4,1,1s-0.4,1-1,1C15.4,10,15,9.6,15,9z M5,9h3c0.6,0,1-0.4,1-1S8.6,7,8,7H5
			C4.4,7,4,7.4,4,8S4.4,9,5,9z M5,12h6c0.6,0,1-0.4,1-1c0-0.6-0.4-1-1-1H5c-0.6,0-1,0.4-1,1C4,11.6,4.4,12,5,12z M22,9v4
			c0,2.8-2.2,5-5,5H5c-2.8,0-5-2.2-5-5V9c0-2.8,2.2-5,5-5h12C19.8,4,22,6.2,22,9z M2,13c0,0.9,0.4,1.8,1.1,2.3l2.2-2
			c0.8-0.6,1.9-0.6,2.6,0c0,0,0.1,0,0.1,0.1l2.1,2.1l3.9-3.6c0.7-0.7,1.9-0.8,2.7-0.2l3,2.7C19.9,14,20,13.5,20,13V9
			c0-1.7-1.3-3-3-3H5C3.3,6,2,7.3,2,9V13z M6.7,14.9C6.7,14.9,6.6,14.9,6.7,14.9L5.4,16h2.4L6.7,14.9z M17,16c0.4,0,0.8-0.1,1.2-0.2
			l-2.8-2.6c0,0,0,0,0,0.1L12.4,16H17z"/>
	</g>
</g>
</svg>
