<svg width="22" height="22" viewBox="0 0 22 22" xmlns="http://www.w3.org/2000/svg">
<g clip-path="url(#clip0_602_3027)">
<path fill-rule="evenodd" clip-rule="evenodd" d="M4.47485 12.5145C4.19653 12.5145 3.92016 12.3993 3.72192 12.1727C3.35864 11.7567 3.40063 11.1258 3.81665 10.7616L7.51099 7.53014C8.21704 6.911 9.24341 6.80651 10.0637 7.2733L12.6965 8.77818C12.7864 8.82896 12.8958 8.80943 12.9622 8.73326L16.55 4.6317C16.9143 4.21373 17.5471 4.17369 17.9612 4.53697C18.3772 4.90123 18.4192 5.53306 18.0559 5.9481L14.467 10.0506C13.7747 10.8397 12.6125 11.0331 11.7043 10.5145L9.07249 9.0106C8.99534 8.96665 8.89573 8.97642 8.82835 9.03501L5.13304 12.2674C4.94359 12.4335 4.70922 12.5145 4.47485 12.5145ZM22.0002 6.74694V15.2548C22.0002 18.4227 19.4221 21.0008 16.2542 21.0008H5.74633C2.57836 21.0008 0.000244141 18.4227 0.000244141 15.2548V6.74694C0.000244141 3.57897 2.57836 1.00085 5.74633 1.00085H16.2541C19.4221 1.00085 22.0002 3.57897 22.0002 6.74694ZM20.0002 6.74694C20.0002 4.68151 18.3196 3.00085 16.2542 3.00085H5.74633C3.6809 3.00085 2.00024 4.68151 2.00024 6.74694V15.2548C2.00024 16.6864 2.81689 17.9183 4.00024 18.5487V15.5468C4.00024 14.994 4.44751 14.5468 5.00024 14.5468C5.55297 14.5468 6.00024 14.994 6.00024 15.5468V19.0009H8.00024V13.0009C8.00024 12.4481 8.44751 12.0009 9.00024 12.0009C9.55297 12.0009 10.0002 12.4481 10.0002 13.0009V19.0009H12.0002V14.0009C12.0002 13.4481 12.4475 13.0009 13.0002 13.0009C13.553 13.0009 14.0002 13.4481 14.0002 14.0009V19.0009H16.0002V11.0009C16.0002 10.4481 16.4475 10.0009 17.0002 10.0009C17.553 10.0009 18.0002 10.4481 18.0002 11.0009V18.5487C19.1836 17.9183 20.0002 16.6864 20.0002 15.2548V6.74694Z" />
</g>
<defs>
<clipPath id="clip0_602_3027">
<rect width="22" height="22" fill="white" transform="translate(0.000244141 0.000854492)"/>
</clipPath>
</defs>
</svg>
