<svg data-name="Icon Strokes" width="18" height="18" viewBox="0 0 18 18">
	<path
		d="m10.39941,10.20215c-.16309.28223-.49219.42383-.80762.3584l-.52051-.1123-.39453.35742c-.1416.12793-.32227.19434-.50391.19434-.12891,0-.25781-.0332-.375-.10059-.28223-.16211-.42676-.48926-.3584-.80762l.1123-.52051-.35742-.39453c-.21875-.24121-.25684-.59668-.09375-.87891.16309-.2832.49219-.41992.80762-.3584l.52051.1123.39453-.35742c.24219-.21875.5957-.25684.87891-.09375.28223.16211.42676.48926.3584.80762l-.1123.52051.35742.39453c.21875.24121.25684.59668.09375.87891Z"
	></path>
	<path
		d="m17.80127,4.89819l-1.53711-1.69531.48389-2.23926c.07324-.34277-.08154-.69043-.38525-.86523-.28174-.16406-.70264-.11816-.94385.10059l-1.6958,1.53711-2.23291-.48242c-.34033-.06934-.69238.07617-.87012.38086-.16455.28223-.12061.70508.09912.94727l1.53711,1.69531-.48389,2.23926c-.07324.34277.08154.69043.38525.86523.11426.06641.25146.09766.39014.09766.20312,0,.41016-.06836.55371-.19824l1.6958-1.53711,2.23291.48242c.34229.07422.69287-.07617.87012-.38086.16455-.28223.12061-.70508-.09912-.94727Zm-3.03174-.69531c-.23779-.05371-.53564.02637-.71582.19043l-.35791.32422.10205-.4707c.05127-.2373-.02734-.5332-.19043-.71289l-.3252-.3584.46875.10156c.23779.05078.53564-.02734.71582-.19043l.35791-.32422-.10107.46777c-.05322.23828.02588.53516.18945.71582l.3252.3584-.46875-.10156Z"
	></path>
	<path
		d="m15.22369,7.38281l-.96423.87402.00519,4.28516c.00195.19238-.07031.37891-.19824.51172-.11914.12305-.28027.19336-.45508.19336h-5.11914l-2.72754,2.45312v-2.45215h-3.53516c-.10742,0-.21484-.05566-.30078-.1543-.11426-.13086-.17969-.32031-.17871-.52051l.01465-8.11035c0-.19434.07617-.38281.20801-.51758.12695-.12988.33398-.2168.46777-.19727h7.2923l-.13458-.14844c-.33826-.3728-.53131-.85547-.57471-1.35156H2.43457c-.57031,0-1.12793.23438-1.5332.64746-.40918.41797-.63477.97363-.63672,1.56445l-.01465,8.11035c-.00098.56543.19238,1.10059.54785,1.50977.37793.43066.90723.625,1.44434.66797h2.02246v2.25293c-.00488.50488.375.91797.90039.94141.24805,0,.48926-.10449.61621-.24414l3.28516-2.95117h4.52734c.60156.01953,1.14551-.23047,1.55273-.65234.39844-.41309.62402-.98535.61816-1.56152l-.0061-5.03491-.53485-.11548Z"
	></path>
</svg>
