<svg width="22" height="22" viewBox="0 0 22 22" xmlns="http://www.w3.org/2000/svg">
<g clip-path="url(#clip0_549_20508)">
<path fill-rule="evenodd" clip-rule="evenodd" d="M11 0C4.93457 0 0 4.93457 0 11C0 17.0654 4.93457 22 11 22C17.0654 22 22 17.0654 22 11C22 4.93457 17.0654 0 11 0ZM16.7988 7.64844L10.8545 15.5527C10.6836 15.7803 10.4248 15.9238 10.1416 15.9482C10.1133 15.9512 10.084 15.9522 10.0557 15.9522C9.80273 15.9522 9.55761 15.8555 9.37109 15.6807L5.31543 11.8721C4.91309 11.4942 4.89258 10.8614 5.27148 10.459C5.64843 10.0547 6.28222 10.0371 6.68457 10.415L9.92676 13.46L15.2012 6.44727C15.5322 6.00489 16.1602 5.91602 16.6006 6.24903C17.042 6.58106 17.1309 7.20704 16.7988 7.64844Z"/>
</g>
<defs>
<clipPath id="clip0_549_20508">
<rect width="22" height="22"/>
</clipPath>
</defs>
</svg>
