<svg width="22" height="22" viewBox="0 0 22 22" xmlns="http://www.w3.org/2000/svg">
<g clip-path="url(#clip0_602_894)">
<path fill-rule="evenodd" clip-rule="evenodd" d="M21.0001 10.0002V16.0002C21.0001 18.7571 18.757 21.0002 16.0001 21.0002H10.2194L12.1329 19.0657C12.6896 18.5022 13.006 17.7258 13.0001 16.9348C12.9943 16.135 12.6779 15.385 12.1095 14.8225L8.11048 10.8684C7.54505 10.3079 6.79505 9.99927 6.00013 9.99927C5.65199 9.99927 5.31776 10.0691 5.00013 10.1814V10.0003C5.00013 7.24341 7.24329 5.00025 10.0001 5.00025H14.0001C14.0001 3.34595 12.6544 2.00025 11.0001 2.00025H5.00012C3.34582 2.00025 2.00012 3.34595 2.00012 5.00025V9.17701C1.68664 9.06568 1.35144 9.00025 1.00012 9.00025C0.647832 9.00025 0.314572 9.07252 0.00012207 9.18458V5.00024C0.00012207 2.2434 2.24328 0.000244141 5.00012 0.000244141H11.0001C13.757 0.000244141 16.0001 2.2434 16.0001 5.00024C18.757 5.00024 21.0001 7.2434 21.0001 10.0002ZM10.7032 16.2444L6.70324 12.2893C6.30969 11.8997 5.67687 11.9036 5.28918 12.2971C4.90051 12.6897 4.90441 13.3235 5.29699 13.7112L7.61144 15.9989H4.83996C3.24719 15.9364 2.00012 14.6184 2.00012 13.0002V12.0002C2.00012 11.4475 1.55285 11.0002 1.00012 11.0002C0.447392 11.0002 0.00012207 11.4475 0.00012207 12.0002V13.0002C0.00012207 15.6975 2.09192 17.8931 4.76282 17.9975H7.56189L5.28918 20.2971C4.90051 20.6897 4.90441 21.3225 5.29699 21.7112C5.4923 21.9045 5.74621 22.0002 6.00011 22.0002C6.25792 22.0002 6.51573 21.9016 6.71105 21.7033L10.7111 17.6584C10.8976 17.4699 11.0021 17.2151 11.0001 16.9494C10.9982 16.6848 10.8917 16.4309 10.7032 16.2444Z" />
</g>
<defs>
<clipPath id="clip0_602_894">
<rect width="22" height="22" transform="translate(0.00012207 0.000244141)"/>
</clipPath>
</defs>
</svg>
