<svg version="1.2" xmlns="http://www.w3.org/2000/svg" viewBox="0 0 25 25" width="25" height="25">
	<title>default-image-svg</title>
	<style>
		.s0 { opacity: 0;fill: #e4e6ef } 
		.s1 { fill: #e4e6ef } 
	</style>
	<path id="Canvas" class="s0" d="m3 3h18v18h-18z"/>
	<path id="Layer" fill-rule="evenodd" class="s1" d="m10.1 10.6q0.1-0.2 0.2-0.3 0.1-0.1 0.3-0.2 0.2-0.1 0.4-0.1h9q0.2 0 0.4 0.1 0.2 0.1 0.3 0.2 0.1 0.1 0.2 0.3 0.1 0.2 0.1 0.4v9q0 0.2-0.1 0.4-0.1 0.2-0.2 0.3-0.1 0.1-0.3 0.2-0.2 0.1-0.4 0.1h-9q-0.2 0-0.4-0.1-0.2-0.1-0.3-0.2-0.1-0.1-0.2-0.3-0.1-0.2-0.1-0.4v-9q0-0.2 0.1-0.4zm1.9 0.7q0-0.1 0-0.1 0-0.1-0.1-0.1 0-0.1-0.1-0.1 0 0 0 0h-0.5q-0.1 0-0.1 0-0.1 0-0.1 0.1-0.1 0-0.1 0.1 0 0 0 0.1v1.5q0 0 0 0 0 0.1 0.1 0.1 0 0.1 0.1 0.1 0 0 0.1 0h0.5q0 0 0 0 0.1 0 0.1-0.1 0.1 0 0.1-0.1 0 0 0 0zm0 3.5q0-0.1 0-0.1 0-0.1-0.1-0.1 0-0.1-0.1-0.1 0 0 0 0h-0.5q-0.1 0-0.1 0-0.1 0-0.1 0.1-0.1 0-0.1 0.1 0 0 0 0.1v1.5q0 0 0 0 0 0.1 0.1 0.1 0 0.1 0.1 0.1 0 0 0.1 0h0.5q0 0 0 0 0.1 0 0.1-0.1 0.1 0 0.1-0.1 0 0 0 0zm0 3.5q0-0.1 0-0.1 0-0.1-0.1-0.1 0-0.1-0.1-0.1 0 0 0 0h-0.5q-0.1 0-0.1 0-0.1 0-0.1 0.1-0.1 0-0.1 0.1 0 0 0 0.1v1.5q0 0 0 0 0 0.1 0.1 0.1 0 0.1 0.1 0.1 0 0 0.1 0h0.5q0 0 0 0 0.1 0 0.1-0.1 0.1 0 0.1-0.1 0 0 0 0zm8-7q0-0.1 0-0.1 0-0.1-0.1-0.1 0-0.1-0.1-0.1 0 0 0 0h-0.5q-0.1 0-0.1 0-0.1 0-0.1 0.1-0.1 0-0.1 0.1 0 0 0 0.1v1.5q0 0 0 0 0 0.1 0.1 0.1 0 0.1 0.1 0.1 0 0 0.1 0h0.5q0 0 0 0 0.1 0 0.1-0.1 0.1 0 0.1-0.1 0 0 0 0zm0 3.5q0-0.1 0-0.1 0-0.1-0.1-0.1 0-0.1-0.1-0.1 0 0 0 0h-0.5q-0.1 0-0.1 0-0.1 0-0.1 0.1-0.1 0-0.1 0.1 0 0 0 0.1v1.5q0 0 0 0 0 0.1 0.1 0.1 0 0.1 0.1 0.1 0 0 0.1 0h0.5q0 0 0 0 0.1 0 0.1-0.1 0.1 0 0.1-0.1 0 0 0 0zm0 3.5q0-0.1 0-0.1 0-0.1-0.1-0.1 0-0.1-0.1-0.1 0 0 0 0h-0.5q-0.1 0-0.1 0-0.1 0-0.1 0.1-0.1 0-0.1 0.1 0 0 0 0.1v1.5q0 0 0 0 0 0.1 0.1 0.1 0 0.1 0.1 0.1 0 0 0.1 0h0.5q0 0 0 0 0.1 0 0.1-0.1 0.1 0 0.1-0.1 0 0 0 0zm-2.2-2.3q0.1 0 0.1-0.1 0.1 0 0.1-0.1 0 0 0 0v-0.5q0-0.1 0-0.1 0-0.1-0.1-0.1 0-0.1-0.1-0.1 0 0 0 0h-4.5q-0.1 0-0.1 0-0.1 0-0.1 0.1-0.1 0-0.1 0.1 0 0 0 0.1v0.5q0 0 0 0 0 0.1 0.1 0.1 0 0.1 0.1 0.1 0 0 0.1 0h4.5q0 0 0 0z"/>
	<path id="Layer" class="s1" d="m15.5 8.8c-0.7-0.1-1.3-0.6-1.3-1.3 0.1-0.7 0.6-1.3 1.3-1.3 0.7 0 1.3 0.6 1.3 1.3-0.1 0.7-0.6 1.2-1.3 1.2z"/>
	<path id="Layer" class="s1" d="m9 9.2l-0.4-0.4q-0.1-0.1-0.3-0.2-0.2-0.1-0.4-0.1-0.2 0-0.4 0.1-0.1 0.1-0.3 0.2l-3.2 3.2v-7h14v4h1v-4.5q0-0.1 0-0.2-0.1-0.1-0.1-0.2-0.1 0-0.2-0.1-0.1 0-0.2 0h-15q-0.1 0-0.2 0-0.1 0.1-0.2 0.1 0 0.1-0.1 0.2 0 0.1 0 0.2v11q0 0.1 0 0.2 0.1 0.1 0.1 0.2 0.1 0 0.2 0.1 0.1 0 0.2 0h5.5z"/>
</svg>