<svg width="24" height="22" viewBox="0 0 24 22" xmlns="http://www.w3.org/2000/svg">
<g clip-path="url(#clip0_571_1501)">
<path fill-rule="evenodd" clip-rule="evenodd" d="M22.44 4H16.0968C16.0968 1.79394 14.2002 0 11.868 0C9.53573 0 7.63916 1.79394 7.63916 4H1.29597C0.711623 4 0.23877 4.44727 0.23877 5C0.23877 5.55273 0.711623 6 1.29597 6H3.41037V16C3.41037 18.7615 5.77694 21 8.69636 21H15.0396C17.959 21 20.3256 18.7615 20.3256 16V6H22.44C23.0243 6 23.4972 5.55273 23.4972 5C23.4972 4.44727 23.0243 4 22.44 4ZM11.868 2C13.0336 2 13.9824 2.89746 13.9824 4H9.75356C9.75356 2.89746 10.7024 2 11.868 2ZM10.8108 15C10.8108 15.5527 10.3379 16 9.75356 16C9.16922 16 8.69636 15.5527 8.69636 15V10C8.69636 9.44727 9.16922 9 9.75356 9C10.3379 9 10.8108 9.44727 10.8108 10V15ZM15.0396 15C15.0396 15.5527 14.5667 16 13.9824 16C13.398 16 12.9252 15.5527 12.9252 15V10C12.9252 9.44727 13.398 9 13.9824 9C14.5667 9 15.0396 9.44727 15.0396 10V15Z"/>
</g>
<defs>
<clipPath id="clip0_571_1501">
<rect width="23.2584" height="22" transform="translate(0.23877)"/>
</clipPath>
</defs>
</svg>
