<?xml version="1.0" encoding="utf-8"?>
<!-- Generator: Adobe Illustrator 28.0.0, SVG Export Plug-In . SVG Version: 6.00 Build 0)  -->
<svg version="1.1" id="Layer_1" xmlns="http://www.w3.org/2000/svg" xmlns:xlink="http://www.w3.org/1999/xlink" x="0px" y="0px"
	 viewBox="0 0 22 22" style="enable-background:new 0 0 22 22;" xml:space="preserve">
<path class="" d="M5.5,21.3c-0.2,0-0.4,0-0.6-0.1C4.4,20.9,4,20.4,4,19.8V16c-1.7,0-3-1.3-3-3V4c0-1.7,1.3-3,3-3h14
	c1.7,0,3,1.3,3,3v9c0,1.7-1.3,3-3,3h-6.6l-4.9,4.9C6.3,21.1,5.9,21.3,5.5,21.3z M4,3C3.4,3,3,3.4,3,4v9c0,0.6,0.4,1,1,1h2v4.6
	l4.6-4.6H18c0.6,0,1-0.4,1-1V4c0-0.6-0.4-1-1-1H4z M16,8.5c0-0.6-0.4-1-1-1l-8,0c-0.6,0-1,0.4-1,1c0,0.6,0.4,1,1,1l8,0
	C15.6,9.5,16,9.1,16,8.5z"/>
</svg>
