<svg viewBox="0 0 24 22" xmlns="http://www.w3.org/2000/svg">
<g clip-path="url(#clip0_571_1493)">
<path fill-rule="evenodd" clip-rule="evenodd" d="M21.7533 1.44787C19.7088 -0.482295 16.3789 -0.483275 14.3344 1.44885L1.40775 13.6836C1.20953 13.8711 1.09906 14.1241 1.09803 14.3889L1.08667 19.9861C1.08564 20.5391 1.55745 20.9873 2.14194 20.9883L8.0781 21C8.36111 21 8.62955 20.8945 8.82777 20.707L21.7843 8.44781C23.8008 6.50983 23.7874 3.37047 21.7533 1.44787ZM3.20107 18.9917L3.20881 15C5.44555 15.2097 7.21215 16.8833 7.42987 19L3.20107 18.9917ZM20.2567 7.0655L18.2742 8.94099L13.843 4.74618L15.8265 2.86925C17.0489 1.71496 19.0363 1.71593 20.2567 2.86826C21.4708 4.01571 21.4791 5.8907 20.2567 7.0655Z"/>
</g>
<defs>
<clipPath id="clip0_571_1493">
<rect width="23.2584" height="22"  transform="translate(0.029541)"/>
</clipPath>
</defs>
</svg>
