<svg id="Layer_1" xmlns="http://www.w3.org/2000/svg" xmlns:xlink="http://www.w3.org/1999/xlink" x="0px" y="0px" viewBox="0 0 22 22" xml:space="preserve" fill="#316FF6" class="shrink-0 size-[16px] transition-all opacity-100 fill-gray-900 text-gray-900"><path class="" d="M21,11.1c0-5.5-4.5-10-10-10c-5.5,0-10,4.5-10,10c0,4.9,3.6,9.1,8.4,9.9v-7H6.9v-2.9h2.5V8.9 C9.2,6.9,10.6,5.2,12.6,5c0.2,0,0.4,0,0.6,0C14,5,14.7,5,15.5,5.2v2.5h-1.3c-0.8-0.1-1.5,0.4-1.6,1.2c0,0.1,0,0.2,0,0.3v1.9h2.8 l-0.4,2.9h-2.3v7C17.4,20.2,21,16,21,11.1z"></path></svg>