<svg width="22" height="22" viewBox="0 0 22 22" xmlns="http://www.w3.org/2000/svg">
<g clip-path="url(#clip0_549_20503)">
<path fill-rule="evenodd" clip-rule="evenodd" d="M18.7818 3.21822C14.4908 -1.07274 7.50919 -1.07274 3.21823 3.21822C-1.07274 7.50919 -1.07274 14.4908 3.21823 18.7818C5.36371 20.9272 8.18137 22 11 22C13.8186 22 16.6363 20.9273 18.7818 18.7818C23.0727 14.4908 23.0727 7.50919 18.7818 3.21822ZM15.7091 14.2944C16.0999 14.6852 16.0999 15.3183 15.7091 15.7091C15.5137 15.9045 15.2577 16.0022 15.0018 16.0022C14.7458 16.0022 14.4898 15.9045 14.2944 15.7091L11 12.4147L7.70556 15.7091C7.51016 15.9045 7.25419 16.0022 6.99821 16.0022C6.74223 16.0022 6.48626 15.9045 6.29086 15.7091C5.90006 15.3183 5.90006 14.6852 6.29086 14.2944L9.58529 11L6.29086 7.70557C5.90006 7.31477 5.90006 6.68168 6.29086 6.29088C6.68166 5.90008 7.31475 5.90008 7.70555 6.29088L11 9.58531L14.2944 6.29088C14.6852 5.90008 15.3183 5.90008 15.7091 6.29088C16.0999 6.68168 16.0999 7.31477 15.7091 7.70557L12.4147 11L15.7091 14.2944Z"/>
</g>
<defs>
<clipPath id="clip0_549_20503">
<rect width="22" height="22"/>
</clipPath>
</defs>
</svg>
