<?xml version="1.0" encoding="utf-8"?>
<!-- Generator: Adobe Illustrator 28.0.0, SVG Export Plug-In . SVG Version: 6.00 Build 0)  -->
<svg fill="#FFF" version="1.1" id="Layer_1" xmlns="http://www.w3.org/2000/svg" xmlns:xlink="http://www.w3.org/1999/xlink" x="0px"
		 y="0px"
		 viewBox="0 0 22 22" style="enable-background:new 0 0 22 22;" xml:space="preserve">
	<g>
	<defs>
		<rect id="SVGID_1_" x="0" y="0" width="22" height="22"/>
	</defs>
		<clipPath id="SVGID_00000010291176916168429080000014204044932781049016_">
		<use xlink:href="#SVGID_1_" style="overflow:visible;"/>
	</clipPath>
		<g style="clip-path:url(#SVGID_00000010291176916168429080000014204044932781049016_);">
		<path d="M13.3,0.8C12.6,0.3,11.8,0,11,0c-0.8,0-1.7,0.3-2.4,0.9L2.2,7C1.4,7.7,1,8.6,1,9.7V19c0,1.1,0.9,2,2,2h4
			c1.1,0,2-0.9,2-2v-6h4v6c0,0.5,0.2,1,0.6,1.4C14,20.8,14.5,21,15,21c0,0,4,0,4,0c1.1,0,2-0.9,2-2V9.7c0-1-0.5-2-1.2-2.6L13.3,0.8z
			"/>
	</g>
</g>
</svg>
