<?xml version="1.0" encoding="utf-8"?>
<!-- Generator: Adobe Illustrator 28.0.0, SVG Export Plug-In . SVG Version: 6.00 Build 0)  -->
<svg version="1.1" id="Layer_1" xmlns="http://www.w3.org/2000/svg" xmlns:xlink="http://www.w3.org/1999/xlink" x="0px" y="0px"
	 viewBox="0 0 22 22" style="enable-background:new 0 0 22 22;" xml:space="preserve">
<path class="" d="M16,1H6C3.2,1,1,3.2,1,6v10c0,2.8,2.2,5,5,5h10c2.8,0,5-2.2,5-5V6C21,3.2,18.8,1,16,1z M19,16c0,1.7-1.3,3-3,3
	H6c-1.7,0-3-1.3-3-3v-6h16V16z M19,8H3V6c0-1.7,1.3-3,3-3h10c1.7,0,3,1.3,3,3V8z"/>
<path class="" d="M5,6c0.6,0,1-0.4,1-1c0-0.6-0.4-1-1-1C4.4,4,4,4.4,4,5C4,5.6,4.4,6,5,6z"/>
<path class="" d="M8,6c0.6,0,1-0.4,1-1c0-0.6-0.4-1-1-1C7.4,4,7,4.4,7,5C7,5.6,7.4,6,8,6z"/>
<path class="" d="M11,6c0.6,0,1-0.4,1-1c0-0.6-0.4-1-1-1c-0.6,0-1,0.4-1,1C10,5.6,10.4,6,11,6z"/>
</svg>
