<svg width="22" height="22" viewBox="0 0 22 22" xmlns="http://www.w3.org/2000/svg">
	<path
		d="M19.5001 13.5005H17.6491C17.0852 12.3223 15.8912 11.5005 14.5001 11.5005C13.109 11.5005 11.915 12.3223 11.351 13.5005H2.50008C1.67196 13.5005 1.00008 14.1724 1.00008 15.0005C1.00008 15.8286 1.67196 16.5005 2.50008 16.5005H11.351C11.915 17.6787 13.109 18.5005 14.5001 18.5005C15.8912 18.5005 17.0852 17.6787 17.6491 16.5005H19.5001C20.3282 16.5005 21.0001 15.8286 21.0001 15.0005C21.0001 14.1724 20.3282 13.5005 19.5001 13.5005Z"/>
	<path
		d="M2.50008 8.50043H4.35103C4.91499 9.67865 6.10896 10.5004 7.50008 10.5004C8.8912 10.5004 10.0852 9.67865 10.6491 8.50043H19.5001C20.3282 8.50043 21.0001 7.82855 21.0001 7.00043C21.0001 6.17231 20.3282 5.50043 19.5001 5.50043H10.6491C10.0852 4.32221 8.8912 3.50043 7.50008 3.50043C6.10896 3.50043 4.915 4.32221 4.35103 5.50043H2.50008C1.67196 5.50043 1.00008 6.17231 1.00008 7.00043C1.00008 7.82855 1.67196 8.50043 2.50008 8.50043Z"/>
</svg>
