<svg width="22" height="22" viewBox="0 0 22 22" xmlns="http://www.w3.org/2000/svg">
	<path
		d="M20.0001 14.0005H17.837C17.4034 12.5597 16.0801 11.5005 14.5001 11.5005C12.92 11.5005 11.5967 12.5597 11.1632 14.0005H2.00006C1.44733 14.0005 1.00006 14.4478 1.00006 15.0005C1.00006 15.5532 1.44733 16.0005 2.00006 16.0005H11.1632C11.5967 17.4413 12.92 18.5005 14.5001 18.5005C16.0801 18.5005 17.4034 17.4413 17.837 16.0005H20.0001C20.5528 16.0005 21.0001 15.5532 21.0001 15.0005C21.0001 14.4478 20.5528 14.0005 20.0001 14.0005ZM14.5001 16.5005C13.6717 16.5005 13.0001 15.8289 13.0001 15.0005C13.0001 14.172 13.6717 13.5005 14.5001 13.5005C15.3284 13.5005 16.0001 14.172 16.0001 15.0005C16.0001 15.8289 15.3284 16.5005 14.5001 16.5005Z"/>
	<path
		d="M2.00006 8.00043H4.16315C4.59674 9.44123 5.91999 10.5004 7.50006 10.5004C9.08013 10.5004 10.4034 9.44123 10.837 8.00043H20.0001C20.5528 8.00043 21.0001 7.55316 21.0001 7.00043C21.0001 6.4477 20.5528 6.00043 20.0001 6.00043H10.837C10.4034 4.55963 9.08013 3.50043 7.50006 3.50043C5.91999 3.50043 4.59674 4.55963 4.16315 6.00043H2.00006C1.44733 6.00043 1.00006 6.4477 1.00006 7.00043C1.00006 7.55316 1.44733 8.00043 2.00006 8.00043ZM7.50006 5.50043C8.32843 5.50043 9.00006 6.17194 9.00006 7.00043C9.00006 7.8288 8.32843 8.50043 7.50006 8.50043C6.67169 8.50043 6.00006 7.8288 6.00006 7.00043C6.00006 6.17194 6.67169 5.50043 7.50006 5.50043Z"/>
</svg>
