<?xml version="1.0" encoding="utf-8"?>
<!-- Generator: Adobe Illustrator 28.0.0, SVG Export Plug-In . SVG Version: 6.00 Build 0)  -->
<svg version="1.1" id="Layer_1" xmlns="http://www.w3.org/2000/svg" xmlns:xlink="http://www.w3.org/1999/xlink" x="0px" y="0px"
	 viewBox="0 0 22 22" style="enable-background:new 0 0 22 22;" xml:space="preserve">
<path class="" d="M15.6,13.5C16.5,12.2,17,10.7,17,9c0-4.4-3.6-8-8-8C4.6,1,1,4.6,1,9c0,4.4,3.6,8,8,8c1.7,0,3.2-0.5,4.5-1.4
	l4.9,5c0.3,0.3,0.7,0.4,1.1,0.4c0.4,0,0.8-0.1,1.1-0.4c0.6-0.6,0.6-1.5,0-2.1L15.6,13.5z M9,14c-2.8,0-5-2.2-5-5c0-2.8,2.2-5,5-5
	c2.8,0,5,2.2,5,5C14,11.8,11.8,14,9,14z"/>
</svg>
