<?xml version="1.0" encoding="utf-8"?>
<!-- Generator: Adobe Illustrator 28.0.0, SVG Export Plug-In . SVG Version: 6.00 Build 0)  -->
<svg version="1.1" id="Layer_1" fill="#FFFC00" xmlns="http://www.w3.org/2000/svg" xmlns:xlink="http://www.w3.org/1999/xlink" x="0px" y="0px"
	 viewBox="0 0 22 22" style="enable-background:new 0 0 22 22;" xml:space="preserve">
<path class="" d="M20.4,15.3c-0.1-0.3-0.4-0.6-0.7-0.7c-0.1,0-0.1-0.1-0.1-0.1c-0.1,0-0.2-0.1-0.3-0.1c-0.8-0.4-1.5-1-2.1-1.8
	c-0.1-0.2-0.3-0.4-0.4-0.6c0-0.1,0-0.2,0-0.2c0,0,0.1-0.1,0.1-0.1c0.2-0.1,0.3-0.2,0.4-0.3c0.2-0.1,0.3-0.2,0.4-0.3
	c0.3-0.2,0.6-0.5,0.8-0.8c0.2-0.4,0.3-0.9,0.1-1.4c-0.3-0.6-0.9-1.1-1.6-1c-0.2,0-0.3,0-0.5,0c0,0-0.1,0-0.1,0c0-0.5,0-0.9,0-1.4
	c-0.1-1.2-0.5-2.2-1.3-3.1c-0.4-0.4-0.8-0.8-1.3-1c-0.9-0.5-1.9-0.8-3-0.8c-1,0-2.1,0.3-3,0.8C7.5,2.7,7.1,3,6.7,3.4
	C6,4.3,5.5,5.4,5.4,6.6c0,0.5,0,0.9,0,1.4c0,0-0.1,0-0.1,0c-0.1,0-0.3,0-0.5,0c-0.7,0-1.3,0.4-1.6,1c-0.2,0.4-0.1,1,0.1,1.4
	c0.2,0.3,0.5,0.6,0.8,0.8c0.1,0.1,0.2,0.2,0.4,0.3c0.1,0.1,0.3,0.2,0.4,0.3c0.1,0,0.1,0.1,0.1,0.1c0,0.1,0,0.2,0,0.3
	c-0.1,0.2-0.2,0.4-0.3,0.6c-0.5,0.7-1.2,1.3-2,1.7c-0.5,0.2-0.9,0.4-1.1,1c-0.2,0.5,0,1,0.3,1.3C2,16.8,2.2,16.9,2.4,17
	c0.4,0.2,0.8,0.4,1.2,0.5c0.1,0,0.2,0.1,0.2,0.1c0.1,0.1,0.1,0.3,0.3,0.6c0.1,0.1,0.2,0.3,0.4,0.4c0.4,0.2,0.8,0.3,1.3,0.3
	c0.5,0,1,0.1,1.4,0.2c0.3,0.1,0.5,0.2,0.7,0.4c1.8,1.3,4.3,1.3,6.1,0c0.2-0.2,0.5-0.3,0.7-0.4c0.5-0.1,1-0.2,1.4-0.2
	c0.5,0,0.9-0.1,1.3-0.3c0.2-0.1,0.3-0.3,0.4-0.4c0.1-0.2,0.1-0.4,0.3-0.5c0.1,0,0.1-0.1,0.2-0.1c0.4-0.1,0.8-0.3,1.2-0.5
	c0.2-0.1,0.4-0.2,0.5-0.4C20.5,16.3,20.6,15.8,20.4,15.3z M19.1,16c-0.8,0.4-1.4,0.4-1.8,0.7c-0.4,0.2-0.1,0.7-0.4,0.9
	c-0.3,0.2-1.3,0-2.5,0.4c-1,0.3-1.6,1.3-3.4,1.3c-1.8,0-2.4-1-3.4-1.3c-1.2-0.4-2.2-0.2-2.5-0.4c-0.3-0.2,0-0.7-0.4-0.9
	c-0.4-0.3-1-0.2-1.8-0.7c-0.2-0.1-0.3-0.2-0.3-0.3c0-0.1,0.1-0.2,0.2-0.3c2.9-1.4,3.4-3.6,3.4-3.8c0.1-0.2,0-0.4-0.2-0.5
	c-0.2-0.2-1.1-0.8-1.4-1C4.3,9.9,4.2,9.7,4.2,9.4c0,0,0-0.1,0-0.1C4.3,9,4.6,8.9,4.8,8.9c0.1,0,0.2,0,0.2,0C5.5,9,6,9.3,6.3,9.3
	c0,0,0.1,0,0.1,0c0.1,0,0.2-0.1,0.2-0.2c-0.1-0.8-0.1-1.6,0-2.5c0-0.2,0-0.5,0.1-0.7c0,0,0-0.1,0-0.1c0-0.2,0.1-0.4,0.2-0.5
	c0-0.1,0.1-0.2,0.1-0.2C7,4.9,7,4.8,7.1,4.7c0-0.1,0.1-0.1,0.1-0.2c0.1-0.1,0.2-0.2,0.3-0.3c0.9-1,2.2-1.5,3.5-1.5
	c1.1,0,2.2,0.4,3.1,1.1c0.1,0.1,0.3,0.2,0.4,0.3c0.6,0.7,1,1.6,1,2.5c0.1,0.8,0,1.6,0,2.5c0,0.2,0,0.2,0.2,0.2c0,0,0.1,0,0.1,0
	C16,9.3,16.5,9,17,8.9c0.1,0,0.2,0,0.2,0c0.2,0,0.5,0.1,0.6,0.3c0.1,0.2,0.1,0.4,0,0.5c-0.1,0.2-0.2,0.3-0.5,0.5
	c-0.2,0.1-0.6,0.4-0.9,0.6c0,0,0,0-0.1,0c-0.2,0.1-0.3,0.2-0.4,0.3c-0.2,0.1-0.2,0.4-0.2,0.6c0,0.2,0.5,2.4,3.4,3.8
	C19.3,15.6,19.6,15.8,19.1,16z"/>
</svg>
