<svg width="22" height="22" viewBox="0 0 22 22" xmlns="http://www.w3.org/2000/svg">
<path d="M13.5 11C13.5 9.61929 12.3807 8.5 11 8.5C9.61929 8.5 8.5 9.61929 8.5 11C8.5 12.3807 9.61929 13.5 11 13.5C12.3807 13.5 13.5 12.3807 13.5 11Z" />
<path d="M13.5 4C13.5 2.61929 12.3807 1.5 11 1.5C9.61929 1.5 8.5 2.61929 8.5 4C8.5 5.38071 9.61929 6.5 11 6.5C12.3807 6.5 13.5 5.38071 13.5 4Z" />
<path d="M13.5 18C13.5 16.6193 12.3807 15.5 11 15.5C9.61929 15.5 8.5 16.6193 8.5 18C8.5 19.3807 9.61929 20.5 11 20.5C12.3807 20.5 13.5 19.3807 13.5 18Z" />
</svg>
