<svg width="24" height="22" viewBox="0 0 24 22" xmlns="http://www.w3.org/2000/svg">
<g clip-path="url(#clip0_571_1495)">
<path fill-rule="evenodd" clip-rule="evenodd" d="M9.19362 2H2.85046C1.68487 2 0.736084 2.89746 0.736084 4V5C0.736084 5.55273 1.20893 6 1.79327 6C2.37762 6 2.85046 5.55273 2.85046 5V4H4.96485L4.96433 11H4.43625C3.8519 11 3.37906 11.4473 3.37906 12C3.37906 12.5527 3.8519 13 4.43625 13H7.60783C8.19217 13 8.66501 12.5527 8.66501 12C8.66501 11.4473 8.19217 11 7.60783 11H7.07871L7.07923 4H9.19361V5C9.19361 5.55273 9.66646 6 10.2508 6C10.8351 6 11.308 5.55273 11.308 5V4C11.308 2.89746 10.3592 2 9.19362 2Z" />
<path d="M19.7656 16.4561C20.2035 16.4561 20.5585 16.1302 20.5585 15.7281C20.5585 15.326 20.2035 15 19.7656 15C19.3276 15 18.9727 15.326 18.9727 15.7281C18.9727 16.1302 19.3276 16.4561 19.7656 16.4561Z" />
<path fill-rule="evenodd" clip-rule="evenodd" d="M20.8225 12.5H15.5366C13.7877 12.5 12.365 13.8457 12.365 15.5V19C12.365 20.6543 13.7877 22 15.5366 22H20.8225C22.5714 22 23.9941 20.6543 23.9941 19V15.5C23.9941 13.8457 22.5714 12.5 20.8225 12.5ZM15.5366 14.5H20.8225C21.4058 14.5 21.8797 14.9482 21.8797 15.5V17.7615L21.5545 17.4629C20.9991 16.9541 20.0936 16.9522 19.5382 17.4629L19.1015 17.8643L17.2173 16.1338C16.6609 15.625 15.7585 15.626 15.2021 16.1348L14.4794 16.7983V15.5C14.4794 14.9482 14.9533 14.5 15.5366 14.5ZM20.8225 20H15.5366C14.9533 20 14.4794 19.5518 14.4794 19V18.8887L16.2097 17.2998L18.5492 19.4473C18.8568 19.7305 19.3462 19.7305 19.6539 19.4473L20.5469 18.6279L21.5008 19.5039C21.545 19.5444 21.5989 19.5664 21.6495 19.5952C21.4564 19.835 21.1653 20 20.8225 20Z" />
<path fill-rule="evenodd" clip-rule="evenodd" d="M14.3567 7.64361L14.221 9.11997L15.3371 10.16C15.6708 10.4709 15.4096 11.0062 14.943 10.9678L13.3822 10.8394L12.2827 11.8951C11.954 12.2108 11.3881 11.9638 11.4287 11.5224L11.5644 10.046L10.4483 9.006C10.1146 8.69507 10.3757 8.15978 10.8424 8.19816L12.4032 8.32654L13.5027 7.27084C13.8314 6.95522 14.3973 7.20222 14.3567 7.64361Z" />
<path fill-rule="evenodd" clip-rule="evenodd" d="M17.9276 8.56832C17.6045 8.56832 17.2813 8.45602 17.0304 8.23238C16.7496 7.9775 16.6051 7.62788 16.6278 7.26851L16.7816 5.22749L15.201 3.81245C14.9501 3.58686 14.8025 3.27046 14.7963 2.94331C14.7911 2.61616 14.9274 2.29487 15.171 2.06245C15.4353 1.80659 15.8142 1.66987 16.1901 1.70015L18.3994 1.8437L19.9336 0.368105C20.4302 -0.107485 21.2489 -0.119195 21.76 0.336855C22.0449 0.596625 22.1894 0.950135 22.1616 1.31342L22.0077 3.34174L23.5894 4.75678C23.8434 4.98432 23.9869 5.29193 23.9941 5.622C24.0003 5.95403 23.8692 6.26654 23.6235 6.50385C23.353 6.76068 22.9823 6.89643 22.6158 6.87104L20.392 6.72553L18.8568 8.20112C18.6049 8.44526 18.2663 8.56832 17.9276 8.56832ZM18.3106 3.84273L18.5171 4.0273C18.799 4.27828 18.9466 4.63569 18.9177 5.00484L18.895 5.31343L19.1469 5.07124C19.4153 4.81733 19.7849 4.67572 20.1535 4.70601L20.4798 4.72749L20.2733 4.54292C19.9904 4.28999 19.8427 3.93354 19.8717 3.5644L19.8944 3.25776L19.6445 3.49799C19.3699 3.75776 18.9972 3.89838 18.6214 3.86225L18.3106 3.84273Z" />
</g>
<defs>
<clipPath id="clip0_571_1495">
<rect width="23.2584" height="22" transform="translate(0.73584)"/>
</clipPath>
</defs>
</svg>
