<svg width="22" height="22" viewBox="0 0 22 22" xmlns="http://www.w3.org/2000/svg">
<path fill-rule="evenodd" clip-rule="evenodd" d="M21.8779 11.9404C21.8779 14.6914 20.1592 16.7327 17.6006 16.9924H12V12.4141L13.793 14.207C13.9883 14.4023 14.2441 14.5 14.5 14.5C14.7559 14.5 15.0117 14.4023 15.207 14.207C15.5977 13.8164 15.5977 13.1836 15.207 12.793L11.707 9.29297C11.3164 8.90235 10.6836 8.90235 10.293 9.29297L6.79297 12.793C6.40235 13.1836 6.40235 13.8164 6.79297 14.207C7.18359 14.5976 7.81641 14.5976 8.20703 14.207L10 12.4141V16.9924H3.5C1.45801 16.884 0.12207 15.3184 0.12207 13.084C0.12207 11.4277 1.00488 10.0898 2.30566 9.58984C2.19336 8.34961 2.51953 7.18457 3.25976 6.23046C4.13574 5.10351 5.45713 4.46483 6.81005 4.48339C6.97898 4.48571 7.15234 4.49316 7.32421 4.51073C8.17675 2.4746 10.0908 1.2085 12.4199 1.08788C13.9502 1.00863 15.6377 1.62792 16.6338 2.67772C17.751 3.8535 18.2827 5.21889 18.2549 6.62694C20.3838 7.06639 21.8779 9.18652 21.8779 11.9404ZM10 20C10 20.5527 10.4473 21 11 21C11.5527 21 12 20.5527 12 20V16.9924H10V20Z"/>
</svg>
