<svg width="48" height="48" viewBox="0 0 48 48" fill="none" xmlns="http://www.w3.org/2000/svg">
<rect x="0.428571" y="0.428571" width="47.1429" height="47.1429" rx="6.42857" fill="#F6F9EC" stroke="#81A141" stroke-width="0.857143"/>
<path fill-rule="evenodd" clip-rule="evenodd" d="M18.0067 28.22C17.7862 28.4405 17.4872 28.5643 17.1755 28.5643C16.8637 28.5643 16.5647 28.4405 16.3443 28.22C16.1238 27.9996 16 27.7006 16 27.3888C16 27.0771 16.1238 26.7781 16.3443 26.5576L20.26 22.6431L20.2682 22.6349C20.5881 22.3216 21.0181 22.1461 21.4659 22.1461C21.9138 22.1461 22.3437 22.3216 22.6637 22.6349L22.6719 22.6431L24.6703 24.6415L27.4276 21.7256L26.2058 20.5038C26.0827 20.3806 25.9989 20.2236 25.965 20.0528C25.931 19.882 25.9485 19.7049 26.0151 19.544C26.0817 19.3831 26.1945 19.2456 26.3393 19.1487C26.4841 19.0519 26.6543 19.0002 26.8284 19H31.1189C31.3526 19 31.5767 19.0928 31.7419 19.2581C31.9072 19.4233 32 19.6474 32 19.8811V24.1716C31.9998 24.3457 31.9481 24.5159 31.8513 24.6607C31.7544 24.8055 31.6169 24.9183 31.456 24.9849C31.2951 25.0515 31.118 25.069 30.9472 25.035C30.7764 25.0011 30.6194 24.9173 30.4962 24.7942L29.09 23.3868L25.9132 26.748C25.7563 26.91 25.5688 27.0394 25.3617 27.1287C25.1545 27.218 24.9318 27.2655 24.7062 27.2685C24.4807 27.2714 24.2568 27.2298 24.0474 27.1459C23.838 27.062 23.6472 26.9375 23.486 26.7797L23.4778 26.7715L21.4653 24.7602L18.0067 28.22Z" fill="#81A141"/>
</svg>
