<svg width="48" height="48" viewBox="0 0 48 48" fill="none" xmlns="http://www.w3.org/2000/svg">
<rect x="0.428571" y="0.428571" width="47.1429" height="47.1429" rx="6.42857" fill="#FEF3C7" fill-opacity="0.4" stroke="#F49D0C" stroke-width="0.857143"/>
<path opacity="0.5" d="M14.4062 22.1774C14.4062 18.7662 14.4063 17.0606 14.8094 16.4867C15.2116 15.9139 16.8148 15.3646 20.0223 14.267L20.6334 14.0579C22.3049 13.4851 23.1401 13.1992 24.0062 13.1992C24.8713 13.1992 25.7076 13.4851 27.379 14.0579L27.9902 14.267C31.1977 15.3646 32.8009 15.9139 33.203 16.4867C33.6062 17.0606 33.6062 18.7672 33.6062 22.1774V23.8563C33.6062 29.8702 29.0846 32.7896 26.2473 34.028C25.4782 34.364 25.0942 34.5326 24.0062 34.5326C22.9182 34.5326 22.5342 34.364 21.7652 34.028C18.9278 32.7886 14.4062 29.8712 14.4062 23.8563V22.1774Z" stroke="#EC9810" stroke-width="3.04762"/>
<path d="M24 19.5991V23.8658" stroke="#EC9810" stroke-width="3.04762" stroke-linecap="round"/>
<path d="M24.012 28.1324C24.6011 28.1324 25.0786 27.6548 25.0786 27.0657C25.0786 26.4766 24.6011 25.999 24.012 25.999C23.4229 25.999 22.9453 26.4766 22.9453 27.0657C22.9453 27.6548 23.4229 28.1324 24.012 28.1324Z" fill="#EC9810"/>
</svg>
