<?xml version="1.0" encoding="utf-8"?>
<!-- Generator: Adobe Illustrator 28.0.0, SVG Export Plug-In . SVG Version: 6.00 Build 0)  -->
<svg fill="#fff" version="1.1" id="Layer_1" xmlns="http://www.w3.org/2000/svg" xmlns:xlink="http://www.w3.org/1999/xlink" x="0px" y="0px"
	 viewBox="0 0 22 22" style="enable-background:new 0 0 22 22;" xml:space="preserve">
<path class="" d="M16,1H6C3.2,1,1,3.2,1,6v10c0,2.8,2.2,5,5,5h10c2.8,0,5-2.2,5-5V6C21,3.2,18.8,1,16,1z M19,16c0,1.7-1.3,3-3,3
	H6c-1.7,0-3-1.3-3-3V6c0-1.7,1.3-3,3-3h10c1.7,0,3,1.3,3,3V16z"/>
<path class="" d="M14.5,10.1L9.7,7.2C9,6.7,8,7.2,8,8.1v5.8c0,0.9,1,1.4,1.7,0.9l4.8-2.9C15.2,11.5,15.2,10.5,14.5,10.1z"/>
</svg>
